<?xml version="1.0" standalone="no"?>
<!DOCTYPE svg PUBLIC "-//W3C//DTD SVG 20010904//EN"
 "http://www.w3.org/TR/2001/REC-SVG-20010904/DTD/svg10.dtd">
<svg version="1.0" xmlns="http://www.w3.org/2000/svg"
 width="912.000000pt" height="953.000000pt" viewBox="0 0 912.000000 953.000000"
 preserveAspectRatio="xMidYMid meet">

<g transform="translate(0.000000,953.000000) scale(0.100000,-0.100000)"
fill="#000000" stroke="none">
<path d="M3180 8735 c0 -130 -1 -135 -24 -150 -27 -18 -69 -8 -79 19 -9 22
-37 20 -37 -2 0 -54 98 -82 150 -42 24 18 25 23 28 164 3 142 3 146 -17 146
-20 0 -21 -5 -21 -135z"/>
<path d="M3430 8705 l0 -165 68 0 c146 1 215 83 182 219 -19 80 -71 111 -186
111 l-64 0 0 -165z m164 114 c33 -15 56 -66 56 -124 0 -40 -5 -52 -34 -81 -31
-31 -40 -34 -90 -34 l-56 0 0 125 0 125 50 0 c27 0 60 -5 74 -11z"/>
<path d="M3880 8705 l0 -165 101 0 c90 0 100 2 97 18 -3 14 -16 17 -81 20
l-77 3 0 144 c0 138 -1 145 -20 145 -19 0 -20 -7 -20 -165z"/>
<path d="M4140 8705 c0 -153 1 -166 18 -163 15 3 17 19 17 163 0 144 -2 160
-17 163 -17 3 -18 -10 -18 -163z"/>
<path d="M4260 8705 c0 -158 1 -165 20 -165 18 0 20 7 20 75 l0 75 70 0 c56 0
70 3 70 15 0 12 -14 15 -70 15 l-70 0 0 55 0 55 74 0 c54 0 75 4 79 14 9 23
-2 26 -100 26 l-93 0 0 -165z"/>
<path d="M4520 8705 l0 -165 100 0 c93 0 100 1 100 20 0 18 -7 20 -81 20 l-80
0 3 53 3 52 73 3 c55 2 72 6 72 17 0 12 -16 15 -75 15 l-75 0 0 55 0 55 80 0
c73 0 80 2 80 20 0 19 -7 20 -100 20 l-100 0 0 -165z"/>
<path d="M4819 8841 c-54 -55 -27 -117 64 -146 97 -32 120 -61 76 -101 -32
-29 -93 -25 -125 9 -14 16 -31 26 -37 24 -19 -6 -8 -40 19 -64 37 -34 131 -33
167 1 59 55 39 116 -49 149 -88 34 -99 41 -102 70 -3 23 2 30 32 42 42 18 82
11 99 -16 14 -22 47 -25 47 -5 0 8 -14 26 -31 40 -24 20 -41 26 -81 26 -41 0
-54 -5 -79 -29z"/>
<path d="M5060 8850 c0 -17 7 -20 50 -20 l50 0 0 -145 c0 -138 1 -145 20 -145
19 0 20 7 20 145 l0 145 50 0 c43 0 50 3 50 20 0 19 -7 20 -120 20 -113 0
-120 -1 -120 -20z"/>
<path d="M5350 8862 c0 -5 25 -49 55 -99 52 -86 55 -95 55 -157 0 -59 2 -66
20 -66 18 0 20 7 20 69 0 67 2 73 55 157 30 49 55 92 55 96 0 4 -9 8 -20 8
-13 0 -31 -21 -60 -70 -22 -38 -44 -71 -48 -74 -4 -2 -28 29 -52 70 -29 49
-50 74 -62 74 -10 0 -18 -4 -18 -8z"/>
<path d="M5670 8706 l0 -166 95 0 c88 0 95 1 95 20 0 18 -7 20 -75 20 l-74 0
-3 142 c-3 127 -5 143 -20 146 -17 3 -18 -10 -18 -162z"/>
<path d="M5920 8705 l0 -165 101 0 c90 0 100 2 97 18 -3 14 -16 17 -81 20
l-78 3 3 52 3 52 73 3 c54 2 72 6 72 17 0 11 -18 15 -72 17 l-73 3 -3 53 -3
52 80 0 c74 0 81 2 81 20 0 19 -7 20 -100 20 l-100 0 0 -165z"/>
<path d="M3259 8151 c-47 -15 -71 -33 -84 -64 -16 -38 -12 -47 22 -47 15 0 36
12 54 31 25 27 34 30 62 25 33 -6 57 -29 57 -53 0 -26 -48 -63 -80 -63 -28 0
-31 -3 -28 -27 3 -25 8 -29 47 -34 67 -9 92 -58 51 -99 -29 -29 -84 -27 -116
5 -30 30 -84 35 -84 7 0 -49 68 -92 147 -92 80 0 143 52 143 119 -1 42 -14 62
-53 82 l-28 15 25 13 c51 28 58 108 13 148 -23 21 -79 44 -106 42 -9 0 -28 -4
-42 -8z"/>
<path d="M3613 8139 c-62 -30 -93 -98 -93 -199 0 -93 27 -154 80 -182 87 -46
198 1 216 90 23 118 -94 203 -190 137 l-39 -26 6 38 c9 56 37 87 80 91 29 3
41 -2 58 -22 28 -32 79 -36 79 -7 0 44 -75 101 -132 101 -13 0 -42 -9 -65 -21z
m117 -217 c26 -32 25 -63 -1 -96 -41 -52 -129 -19 -129 49 0 78 82 108 130 47z"/>
<path d="M3970 8147 c-36 -13 -80 -66 -80 -98 0 -14 7 -19 30 -19 23 0 33 7
45 30 32 62 117 47 123 -23 3 -35 -3 -43 -97 -140 -77 -79 -101 -110 -101
-130 l0 -27 140 0 140 0 0 30 0 30 -85 0 c-47 0 -85 4 -85 8 0 4 23 30 51 57
108 105 135 183 83 244 -23 28 -77 52 -114 50 -8 0 -31 -5 -50 -12z"/>
<path d="M4312 8140 c-34 -15 -47 -29 -63 -66 -27 -60 -19 -106 26 -151 26
-26 41 -33 74 -33 42 0 91 17 91 32 0 4 5 8 10 8 15 0 12 -47 -5 -80 -28 -55
-81 -66 -119 -25 -15 16 -34 25 -55 25 -37 0 -40 -16 -10 -54 69 -87 194 -70
247 34 17 35 22 61 22 124 0 105 -25 160 -84 187 -52 24 -80 23 -134 -1z m112
-61 c37 -29 37 -89 0 -118 -37 -29 -68 -26 -98 10 -34 40 -33 64 3 100 35 34
59 36 95 8z"/>
<path d="M4692 8140 c-108 -49 -127 -267 -32 -362 34 -34 43 -38 90 -38 64 0
101 21 131 73 46 83 33 252 -24 305 -19 18 -85 42 -112 42 -5 0 -29 -9 -53
-20z m101 -60 c60 -48 63 -224 4 -265 -58 -40 -111 -2 -122 90 -10 77 2 134
35 167 34 33 49 35 83 8z"/>
<path d="M5160 8154 c-24 -7 -190 -275 -190 -306 l0 -28 100 0 100 0 0 -41 c0
-39 1 -40 33 -37 29 3 32 6 35 41 3 32 7 37 28 37 20 0 24 5 24 30 0 25 -4 30
-25 30 l-25 0 0 135 c0 101 -3 135 -12 135 -7 0 -22 2 -33 4 -11 2 -27 2 -35
0z m10 -184 l0 -90 -61 0 c-33 0 -59 3 -57 8 13 29 104 171 111 172 4 0 7 -40
7 -90z"/>
<path d="M5436 8016 c-61 -95 -86 -142 -86 -165 l0 -31 94 0 95 0 3 -37 c3
-35 6 -38 35 -41 30 -3 32 -1 35 35 3 33 6 38 31 41 24 3 28 7 25 30 -2 18
-10 28 -28 32 -25 6 -25 6 -28 138 l-3 132 -43 0 -44 0 -86 -134z m106 -50
l-3 -86 -55 0 c-30 0 -54 3 -54 6 0 12 104 173 110 169 3 -2 4 -42 2 -89z"/>
<path d="M5756 8093 c-4 -32 -9 -79 -12 -104 -5 -45 -5 -46 25 -52 18 -4 45 0
66 9 41 17 61 13 93 -17 45 -41 11 -129 -49 -129 -38 0 -69 16 -69 35 0 11
-11 15 -39 15 l-40 0 11 -30 c34 -100 209 -106 259 -9 23 45 24 78 5 123 -27
65 -108 97 -168 65 -11 -6 -21 -9 -22 -7 -1 2 -1 24 2 51 l4 47 89 0 89 0 0
30 0 30 -119 0 -119 0 -6 -57z"/>
<path d="M1735 6887 c-3 -7 -4 -154 -3 -327 l3 -315 325 0 325 0 3 305 c1 168
0 315 -3 328 l-5 22 -321 0 c-248 0 -321 -3 -324 -13z m553 -314 l2 -232 -230
-3 c-184 -2 -231 0 -235 10 -7 19 -6 427 1 446 6 14 33 16 233 14 l226 -3 3
-232z"/>
<path d="M1920 6570 l0 -141 138 3 137 3 0 135 0 135 -137 3 -138 3 0 -141z"/>
<path d="M2668 6808 l-3 -93 -47 -3 -47 -3 -3 48 -3 48 -40 0 -40 0 -3 -47 -3
-48 45 0 46 0 0 -44 0 -45 -42 -3 -43 -3 0 -45 0 -45 43 -3 42 -3 0 -45 0 -44
-45 0 -45 0 0 -95 0 -95 45 0 45 0 0 -45 0 -44 -137 -3 -138 -3 0 -45 0 -45
80 -2 c44 -1 86 -2 93 -2 8 -1 12 -17 12 -46 l0 -45 -95 0 -95 0 0 44 c0 48
-10 57 -60 52 -22 -2 -25 -8 -28 -49 l-3 -47 -95 0 -94 0 0 -45 0 -44 -92 -3
-93 -3 -3 -92 -3 -93 -44 0 -45 0 0 -140 0 -140 94 0 95 0 3 -47 3 -48 40 0
40 0 3 47 3 47 92 3 92 3 0 90 0 90 -47 3 -48 3 0 45 0 44 -45 0 -45 0 0 45 0
45 139 0 140 0 3 -42 3 -43 93 -3 92 -3 0 46 0 45 45 0 45 0 0 49 0 50 48 3
47 3 3 43 3 42 45 0 44 0 0 -45 0 -45 40 0 c40 0 58 -16 54 -50 -1 -8 -2 -23
-3 -32 -1 -14 -10 -18 -46 -18 l-45 0 0 -45 0 -44 -92 -3 -93 -3 -3 -92 -3
-93 -89 0 -89 0 -3 -42 c-3 -43 -3 -43 -48 -48 -44 -5 -45 -6 -48 -45 -2 -22
-9 -43 -15 -47 -7 -4 -69 -8 -139 -8 l-128 0 0 -45 0 -45 -45 0 -45 0 0 44 c0
24 -4 46 -10 48 -5 2 -48 2 -95 0 l-85 -3 0 -45 0 -44 44 0 45 0 3 -42 3 -43
90 -5 90 -5 0 -45 0 -45 -42 -3 -43 -3 0 -45 0 -44 89 0 90 0 3 43 3 42 93 3
92 3 0 -46 0 -45 -45 0 -45 0 0 -45 0 -45 45 0 45 0 0 -51 0 -50 -42 3 c-43 3
-43 3 -48 48 -4 38 -9 46 -29 48 -12 2 -34 1 -47 -2 -21 -6 -24 -12 -24 -52
l0 -45 -42 3 c-43 3 -43 3 -48 48 l-5 45 -40 0 -40 0 -5 -45 -5 -45 -45 0 -45
0 -3 138 -3 137 -44 0 -45 0 2 -232 3 -233 138 -3 137 -3 0 -89 0 -90 46 0 45
0 -3 -47 -3 -48 -42 -3 c-42 -3 -42 -3 -45 -45 -3 -42 -3 -42 -45 -45 l-43 -3
0 -44 0 -44 43 -3 c42 -3 42 -3 47 -48 5 -45 5 -45 47 -48 l42 -3 3 -92 3 -92
48 -3 48 -3 -3 -42 -3 -42 -47 -3 -48 -3 0 45 0 45 -42 3 c-43 3 -43 3 -48 48
-5 45 -5 45 -47 48 l-43 3 0 -44 c0 -50 -9 -57 -66 -57 -34 0 -34 0 -34 -45
l0 -45 -45 0 -45 0 0 -45 0 -45 46 0 45 0 -3 -47 -3 -48 -42 -3 -43 -3 0 -90
0 -89 140 0 140 0 0 90 0 90 45 0 45 0 0 -140 0 -140 -45 0 -45 0 0 -45 0 -45
-44 0 -45 0 -3 43 -3 42 -45 0 -45 0 0 -135 0 -135 48 -3 48 -3 -3 -42 -3 -42
-90 -5 -90 -5 -3 -92 -3 -93 46 0 45 0 0 -44 0 -45 -42 -3 -43 -3 0 -140 0
-140 70 -3 c106 -5 115 0 115 54 l0 45 43 -3 c42 -3 42 -3 47 -48 l5 -45 40 0
40 0 3 92 3 92 -43 3 c-43 3 -43 3 -48 48 -5 45 -5 45 -47 48 -42 3 -42 3 -45
45 l-3 42 -48 3 -48 3 3 42 3 42 90 5 90 5 5 45 c5 45 5 45 48 48 l42 3 0 45
0 44 50 0 51 0 -3 -92 -3 -93 -45 -5 -45 -5 0 -85 0 -85 92 -3 92 -3 3 43 c3
43 3 43 45 46 35 3 44 7 49 27 11 46 2 60 -46 65 l-45 5 0 45 0 45 90 0 90 0
5 -45 c5 -45 5 -45 47 -48 42 -3 42 -3 45 -45 l3 -42 48 -3 47 -3 0 -95 0 -94
-95 0 -95 0 0 -45 0 -44 -92 -3 -93 -3 -3 -47 -3 -48 -44 0 -44 0 -3 -42 -3
-43 -137 -3 -138 -3 0 -44 0 -44 -92 -3 -93 -3 -3 -92 -3 -93 186 0 185 0 0
44 0 45 -42 3 -43 3 0 45 0 45 40 0 40 0 5 -45 5 -45 45 0 45 0 5 45 5 45 87
3 87 3 7 35 c8 43 0 52 -51 56 -39 3 -40 4 -43 46 l-3 42 73 1 c40 0 83 2 96
3 21 3 22 0 22 -91 l0 -93 44 0 45 0 3 -47 3 -48 93 -3 93 -3 -3 -137 -3 -137
-42 -3 -42 -3 -3 48 -3 48 -45 5 -45 5 -3 88 -3 87 -44 0 -45 0 0 -140 0 -140
45 0 45 0 0 -45 0 -45 -45 0 -45 0 0 -235 0 -235 44 0 45 0 3 43 3 42 45 0 45
0 3 -42 3 -43 44 0 44 0 3 93 3 92 42 3 c42 3 42 3 45 45 l3 42 93 3 92 3 0
94 0 95 95 0 95 0 0 -50 0 -50 -45 0 -45 0 0 -90 0 -90 45 0 45 0 0 90 0 90
44 0 45 0 3 -43 3 -42 45 0 45 0 3 43 3 42 140 0 139 0 0 -45 0 -45 45 0 44 0
3 -92 3 -93 48 -3 47 -3 0 -45 0 -44 45 0 45 0 0 45 0 45 38 0 c20 0 42 4 47
8 6 4 10 45 10 92 l0 85 143 3 142 3 0 -96 0 -95 -51 0 -50 0 3 -42 3 -43 45
0 45 0 3 43 3 42 45 0 44 0 0 -45 0 -45 140 0 140 0 0 44 0 45 -42 3 c-43 3
-43 3 -48 48 l-5 45 -45 5 c-45 5 -45 5 -48 48 l-3 42 190 0 191 0 0 -45 0
-45 -45 0 c-36 0 -45 -4 -46 -17 0 -10 -2 -26 -4 -37 -8 -44 0 -47 144 -44
l136 3 3 48 3 48 42 -3 42 -3 3 -48 3 -47 -45 0 -46 0 0 -45 0 -45 45 0 45 0
0 45 0 45 44 0 45 0 3 48 3 47 93 3 92 3 0 -51 0 -50 -45 0 -45 0 0 -45 0 -45
45 0 45 0 0 45 0 45 45 0 c39 0 45 3 51 24 3 13 5 30 4 37 -5 34 1 39 45 39
l45 0 0 -95 0 -95 44 0 45 0 3 42 3 43 92 3 92 3 3 -43 c3 -43 3 -43 46 -46
l42 -3 1 58 c4 143 -2 128 49 128 l45 0 5 -45 c5 -45 5 -45 47 -48 42 -3 42
-3 45 -45 l3 -42 45 0 45 0 0 40 0 40 -48 3 -48 3 3 47 c3 47 3 47 42 50 46 4
56 -7 56 -60 l0 -38 45 0 45 0 0 -45 0 -45 188 2 187 3 3 42 c3 42 3 42 45 45
l42 3 5 90 5 90 90 0 90 0 5 -90 5 -90 42 -3 c42 -3 42 -3 45 -45 l3 -42 138
-3 137 -3 -2 233 -3 233 -137 3 -138 3 0 44 0 45 140 0 140 0 -2 422 c-3 400
-4 423 -21 426 -10 2 -29 1 -42 -2 -20 -5 -24 -14 -27 -49 -3 -41 -4 -42 -43
-45 -42 -4 -58 -17 -50 -43 11 -34 -5 -49 -51 -49 l-44 0 0 140 0 140 44 0
c37 0 44 3 48 22 2 13 2 33 0 46 -3 19 -9 22 -48 22 l-44 0 0 141 0 140 48 -3
c42 -3 47 -5 48 -28 2 -60 2 -60 49 -60 l45 0 0 -45 0 -45 -44 0 c-50 0 -58
-10 -49 -64 5 -35 7 -36 49 -36 l44 0 0 -45 0 -45 45 0 45 0 0 140 0 140 -45
0 -45 0 0 48 0 47 45 -3 45 -4 0 51 0 51 -45 0 -45 0 0 45 0 45 46 0 45 0 -3
48 -3 47 -42 3 -43 3 0 45 0 44 45 0 45 0 0 140 0 140 -45 0 -45 0 0 44 0 45
43 3 42 3 3 188 2 187 -45 0 -45 0 0 95 0 95 45 0 45 0 0 45 0 45 -45 0 -45 0
0 49 0 50 -42 -5 c-50 -6 -46 -3 -48 -34 -5 -57 -3 -60 45 -60 l45 0 0 -45 0
-45 -45 0 c-29 0 -45 -5 -46 -12 -1 -7 -2 -20 -3 -28 -2 -8 -3 -25 -4 -37 -2
-20 -8 -23 -47 -23 l-45 0 0 140 0 140 44 0 c40 0 44 2 47 28 9 61 1 72 -47
72 l-44 0 0 140 0 140 45 0 c38 0 45 -3 50 -22 2 -13 4 -32 2 -43 -2 -17 5
-20 45 -23 l47 -3 3 -142 3 -142 40 0 40 0 0 140 0 140 -42 3 -43 3 0 45 0 44
45 0 45 0 0 140 0 140 -45 0 -45 0 0 -140 0 -140 -51 0 c-42 0 -50 3 -48 18 1
9 1 29 0 45 -1 25 -4 27 -47 27 l-45 0 3 48 3 47 40 3 c46 4 52 11 50 55 l-2
32 -91 3 -92 3 0 -46 0 -46 -47 3 -48 3 -3 88 -3 87 -89 0 -89 0 -3 -42 -3
-43 -48 -3 -48 -3 3 -92 3 -92 45 0 45 0 0 93 0 92 47 0 47 0 3 -92 3 -93 138
-3 137 -3 0 -44 0 -45 -45 0 -44 0 -3 -92 -3 -93 -90 0 -90 0 0 45 0 45 43 3
42 3 0 45 0 45 -137 -3 -138 -3 -3 -42 c-3 -41 -2 -43 25 -44 15 -1 33 -2 38
-4 6 -1 16 -3 23 -3 10 -2 12 -24 10 -89 l-3 -88 -92 -3 -92 -3 -3 -47 -3 -47
-47 -3 -48 -3 0 51 0 51 -42 -3 -43 -3 0 -45 0 -45 43 -3 42 -3 0 -45 0 -44
-90 0 -90 0 0 79 c0 106 -3 111 -57 111 l-44 0 3 43 c3 42 3 42 48 47 l45 5 1
45 0 45 47 3 47 3 0 90 0 90 -92 -3 -93 -3 0 -40 0 -40 45 -5 45 -5 0 -40 0
-40 -140 -5 -140 -5 -1 -35 c-1 -54 4 -60 52 -60 l44 0 0 -45 0 -45 45 0 45 0
0 -95 0 -96 -92 3 -93 3 -2 80 c0 44 -2 86 -2 93 -1 8 -17 12 -46 12 l-45 0 0
45 0 44 -137 3 -138 3 -3 48 -3 47 45 0 46 0 0 90 0 90 95 0 95 0 0 -90 0 -90
45 0 c41 0 45 2 46 25 1 14 3 30 4 35 1 6 3 14 4 19 0 6 20 11 44 13 42 3 42
3 45 46 l3 42 44 0 44 0 3 48 3 47 93 3 92 3 0 89 0 90 45 0 c44 0 45 -1 45
-32 0 -49 12 -60 56 -56 38 3 39 4 42 45 l3 42 -48 3 -48 3 -3 48 -3 47 50 0
50 0 3 -47 3 -48 40 0 40 0 0 45 0 45 -42 3 -43 3 0 140 0 140 93 -3 92 -3 0
-44 0 -44 -45 -1 -45 -1 0 -45 0 -45 48 -3 47 -3 0 -45 0 -44 184 0 185 0 3
-47 3 -48 45 -5 c42 -5 45 -7 46 -35 2 -57 2 -56 47 -53 42 3 42 3 45 46 2 23
8 42 15 43 7 1 26 2 42 3 l30 1 3 134 c3 147 2 151 -55 151 -32 0 -33 1 -33
45 l0 45 45 0 45 0 0 140 0 140 -45 0 -44 0 -3 93 -3 92 -42 3 c-25 2 -43 -1
-44 -7 0 -6 0 -45 0 -86 0 -41 0 -79 0 -85 1 -5 21 -10 46 -10 l45 0 0 -139 0
-140 -47 -3 -46 -3 0 -40 0 -40 46 -3 47 -3 0 -145 0 -144 -45 0 c-42 0 -51 6
-46 34 1 5 -1 22 -4 37 -6 27 -10 29 -51 29 l-44 0 0 140 0 140 44 0 c47 0 55
8 50 50 -1 14 -3 28 -3 33 -1 4 -21 7 -46 7 l-45 0 -2 188 -3 187 -42 3 -43 3
0 -190 0 -191 45 0 45 0 0 -45 0 -45 -45 0 -44 0 -3 -92 -3 -93 -137 -3 -138
-3 0 51 0 50 90 0 90 0 0 89 0 90 -42 3 c-43 3 -43 3 -48 48 -5 45 -5 45 -47
48 l-43 3 0 44 0 44 43 3 c42 3 42 3 45 46 l3 42 -45 0 -46 0 0 -44 0 -45 -47
-3 -48 -3 -5 -90 -5 -90 -42 -3 -43 -3 0 -44 0 -44 -47 -3 -48 -3 -5 -43 -5
-44 -231 2 -231 1 3 -39 c1 -21 -1 -44 -5 -51 -5 -8 -46 -11 -142 -9 l-134 3
0 135 0 135 90 5 90 5 0 45 0 45 -137 3 -138 3 0 44 0 45 45 0 44 0 3 93 3 92
92 3 92 3 3 -93 3 -93 39 -3 c43 -4 59 10 51 44 -8 34 15 52 58 47 36 -5 37
-6 37 -49 l0 -44 -49 0 -49 0 1 -42 2 -43 48 -3 47 -3 0 -50 0 -49 -45 0 c-39
0 -45 -3 -51 -24 -12 -49 -2 -61 46 -61 l45 0 3 43 3 42 44 0 44 0 3 -42 3
-43 93 -3 92 -3 0 46 0 45 45 0 c45 0 45 0 45 34 0 57 7 66 57 66 l44 0 -3 43
-3 42 -137 3 -137 3 -3 92 -3 92 -48 3 -48 3 3 42 c3 42 3 42 48 47 l45 5 0
90 0 90 -45 5 c-45 5 -45 5 -48 48 l-3 42 95 0 95 0 3 -137 3 -138 42 -3 c42
-3 42 -3 45 -45 l3 -42 92 -3 92 -3 3 -47 3 -47 45 0 45 0 0 45 0 45 -47 3
-47 3 -3 92 -3 92 -40 0 -40 0 -5 -45 -5 -45 -48 -3 -48 -3 3 93 3 93 45 5
c45 5 45 5 48 47 3 42 3 42 45 45 l42 3 0 185 0 185 -90 0 -90 0 -3 -92 -3
-93 -44 0 -45 0 0 -45 0 -44 -92 -3 -93 -3 -3 -47 -3 -48 -45 0 -44 0 0 -45 0
-45 -45 0 c-53 0 -58 -11 -51 -105 2 -33 5 -66 5 -72 1 -9 17 -13 46 -13 l45
0 0 -45 0 -45 -95 0 -94 0 -3 93 -3 92 -40 0 -40 0 -5 -45 -5 -45 -45 0 -45 0
-3 48 -3 48 -42 -3 c-42 -3 -42 -3 -47 -48 l-5 -45 -40 0 -40 0 0 45 0 45 43
-1 42 -1 0 48 0 48 93 3 92 3 0 40 0 40 -45 5 -45 5 0 45 0 45 138 3 137 3 0
44 0 45 50 0 50 0 0 -45 0 -45 45 0 45 0 0 44 0 45 48 3 c45 3 47 4 50 37 4
42 -7 53 -55 55 -37 1 -38 2 -43 46 l-5 45 -40 0 c-40 0 -40 0 -43 -42 -2 -24
-8 -44 -15 -44 -7 -1 -28 -2 -47 -3 -37 -1 -35 4 -39 -78 -1 -16 -12 -18 -91
-18 l-89 0 -3 93 -3 92 -90 0 -90 0 0 -45 0 -44 40 -1 40 0 3 -48 3 -48 -43 3
-43 3 -3 47 -3 46 -42 -2 -42 -3 -3 -91 -3 -91 43 -3 43 -3 3 -92 3 -93 -46 0
c-29 0 -45 -4 -46 -12 0 -7 -1 -29 -2 -48 -2 -31 -5 -35 -26 -32 -13 2 -34 1
-47 -2 -23 -6 -24 -10 -24 -96 l0 -90 -46 0 -45 0 3 -47 3 -48 43 -3 42 -3 0
51 0 51 93 -3 92 -3 3 -92 3 -93 -46 0 -45 0 0 -45 0 -45 45 0 46 0 -3 -92 -3
-93 -42 -3 -43 -3 0 -45 c0 -35 4 -44 18 -45 74 -4 67 5 70 -96 l3 -93 -45 0
-45 0 -3 43 -3 42 -47 3 -48 3 0 140 0 139 45 0 c39 0 45 3 51 24 3 13 4 35 2
47 -3 21 -9 24 -50 27 l-48 3 0 44 0 44 48 3 47 3 0 40 c0 39 -1 40 -40 46
-22 4 -43 5 -47 2 -5 -2 -8 -24 -8 -49 l0 -44 -140 0 -139 0 -3 93 -3 92 -42
3 -43 3 0 44 0 44 43 3 42 3 3 48 3 48 42 -3 c42 -3 42 -3 47 -48 l5 -45 45 0
45 0 3 93 3 92 44 0 45 0 0 45 0 45 -45 0 -45 0 0 -45 0 -45 -95 0 -95 0 0
140 0 140 141 0 140 0 -3 46 -3 45 -265 0 c-146 -1 -270 2 -277 7 -6 4 -13 25
-15 47 l-3 40 -185 0 -185 0 -3 -40 c-2 -22 -9 -43 -15 -47 -14 -9 -141 -8
-156 1 -5 3 -11 24 -13 46 l-3 40 -185 0 -185 0 -3 -42 -3 -43 128 -2 c70 -2
155 -3 188 -3 l60 -1 3 -47 3 -47 -95 0 -96 0 0 -45 0 -45 95 0 95 0 0 -34 c0
-57 -8 -66 -56 -66 l-44 0 0 -94 0 -94 38 5 c54 7 63 -8 60 -104 l-3 -78 -45
-5 -45 -5 -5 -45 -5 -45 -72 -3 c-120 -5 -114 -18 -111 241 l3 222 45 5 45 5
0 45 0 45 -45 5 -45 5 0 40 0 40 -92 3 -93 3 0 -45 0 -45 43 -3 42 -3 0 -45 0
-45 -90 0 -90 0 -3 142 -3 141 -92 -1 -92 -2 -3 -47 -3 -47 -42 -3 c-42 -3
-42 -3 -45 -45 l-3 -43 -95 0 -94 0 0 141 0 140 -42 -3 c-43 -3 -43 -3 -46
-45 -3 -42 -3 -42 -45 -45 l-42 -3 -3 -47 -3 -48 45 0 46 0 0 -45 0 -45 -46 0
-45 0 3 -47 3 -48 40 0 40 0 3 48 3 47 44 0 44 0 3 -47 3 -48 45 -5 45 -5 5
-135 5 -135 43 -3 42 -3 0 -45 0 -44 -45 0 -45 0 0 44 0 45 -47 3 -48 3 -5 45
-5 45 -42 -1 -42 -1 -3 46 -3 46 -42 3 -42 3 -3 -48 c-3 -44 -5 -48 -27 -45
-13 2 -34 1 -47 -2 -21 -6 -24 -12 -24 -52 l0 -45 -42 3 c-43 3 -43 3 -48 48
-5 42 -7 45 -38 48 -44 4 -62 -12 -62 -59 l0 -39 -45 0 -46 0 3 93 3 92 90 5
90 5 3 42 c3 42 3 42 45 45 l42 3 3 48 3 47 -140 0 -141 0 0 45 0 45 141 0
140 0 -3 48 -3 47 -125 -3 c-69 -1 -130 1 -137 5 -6 5 -13 26 -15 48 -3 39 -4
40 -45 43 l-42 3 -3 -93z m2252 -49 l0 -48 93 -3 92 -3 0 -40 0 -40 -92 -3
-93 -3 0 46 0 45 -45 0 c-29 0 -45 -5 -46 -12 -1 -7 -1 -44 0 -83 2 -86 -5
-97 -55 -93 -38 3 -39 4 -44 48 -5 45 -5 45 -47 48 -42 3 -42 3 -45 45 -3 42
-3 42 -48 47 -43 5 -45 7 -48 38 -2 19 -1 39 1 46 3 8 56 12 191 12 l186 1 0
-48z m1310 -1 l0 -48 -45 0 -45 0 0 48 0 47 45 1 45 0 0 -48z m-1780 -93 l0
-45 -45 0 -45 0 0 45 0 45 45 0 45 0 0 -45z m-1785 -95 l0 -45 -47 -3 -48 -3
0 44 c0 24 3 47 7 51 4 4 25 6 48 4 l40 -3 0 -45z m3940 0 l0 -45 -42 -3 c-38
-3 -43 -1 -49 22 -3 14 -3 38 0 52 6 23 11 25 49 22 l42 -3 0 -45z m-2815 -94
l0 -45 48 -3 47 -3 3 -46 3 -46 42 1 42 1 0 -45 0 -45 -42 -3 -43 -3 0 -44 0
-44 43 -3 42 -3 0 -45 0 -45 -42 -3 c-42 -3 -42 -3 -45 -45 l-3 -42 -47 -3
-48 -3 0 -45 0 -44 -46 0 -45 0 3 -47 3 -48 93 -3 92 -3 0 -44 0 -45 45 0 45
0 0 45 0 45 45 0 c42 0 51 6 46 34 -1 5 1 22 4 37 6 27 10 29 51 29 l44 0 0
45 0 46 93 -3 92 -3 3 -42 3 -43 90 0 89 0 0 45 0 45 -90 0 -90 0 0 45 0 45
90 0 90 0 0 -45 0 -45 190 0 190 0 0 140 0 140 -45 0 -45 0 0 95 0 95 45 0 45
0 0 45 0 45 45 0 45 0 0 -45 0 -45 96 0 95 0 -3 -47 -3 -47 -40 0 -40 -1 -3
-47 -3 -48 -50 0 -50 0 3 -42 3 -43 48 -3 48 -3 -3 -92 -3 -92 -92 -3 -93 -3
0 -44 0 -45 -45 0 -45 0 0 -95 0 -95 90 0 90 0 0 45 0 45 50 0 50 0 0 50 0 50
185 0 185 0 0 -50 0 -50 -45 0 -45 0 0 -140 0 -140 45 0 45 0 0 -45 0 -45 50
0 50 0 0 -45 c0 -38 3 -45 23 -50 13 -4 27 -5 33 -4 28 5 34 -3 34 -46 l0 -45
188 0 188 0 -3 72 c-7 120 -8 118 97 118 l89 0 3 43 3 42 138 3 137 3 0 -46 0
-45 -140 0 -140 0 0 -140 0 -140 -45 0 -45 0 0 -50 0 -50 -44 0 c-48 0 -56 9
-56 66 l0 34 -185 0 -185 0 0 -140 0 -140 -45 0 c-44 0 -45 1 -45 33 0 48 -12
59 -56 55 -38 -3 -39 -4 -42 -45 l-3 -42 48 -3 48 -3 0 -45 0 -45 -47 -3 -48
-3 0 -44 0 -44 93 -3 92 -3 3 -92 3 -93 94 0 95 0 0 45 0 45 -37 0 c-54 0 -65
10 -61 56 l3 39 93 3 92 3 0 -96 0 -95 44 0 c47 0 54 -7 52 -55 -1 -29 -3 -30
-48 -33 l-48 -3 0 45 0 46 -44 0 -45 0 -3 -42 -3 -43 -92 -3 -92 -3 -3 -47 -3
-47 -42 -3 -43 -3 0 -44 0 -44 43 -3 c42 -3 42 -3 45 -45 3 -47 -3 -43 88 -43
4 0 6 41 5 90 l-2 90 95 0 96 0 0 -45 0 -45 -45 0 -45 0 0 -45 0 -45 93 0 94
0 -1 138 -1 137 45 0 45 0 5 -45 c5 -45 5 -45 47 -48 l42 -3 3 48 3 48 42 3
c38 3 43 0 48 -21 4 -14 5 -36 3 -48 -3 -21 -9 -24 -50 -27 l-48 -3 0 -89 0
-89 -92 -3 -93 -3 0 -45 0 -45 45 -5 c45 -5 45 -5 48 -47 l3 -43 45 0 44 0 0
-95 0 -95 -90 0 -89 0 -7 -36 c-8 -43 0 -52 51 -56 39 -3 40 -4 45 -48 l5 -45
40 0 40 0 5 45 5 45 45 0 45 0 0 -45 0 -45 -48 0 -47 0 0 -142 0 -143 140 0
140 0 0 -140 0 -139 -137 -3 -138 -3 0 -40 0 -40 137 -3 137 -3 3 43 3 43 48
3 47 3 0 45 0 45 93 -3 92 -3 0 -40 0 -40 -92 -3 -93 -3 0 -44 0 -44 93 -3 92
-3 0 -188 0 -187 47 0 47 0 3 93 3 92 93 3 92 3 0 44 0 44 -92 3 -93 3 -3 138
-3 137 96 0 95 0 0 50 0 50 -140 0 -140 0 0 45 0 44 -92 3 -93 3 -3 93 -3 93
93 -3 93 -3 3 -93 3 -93 42 3 42 3 3 93 3 92 94 0 95 0 0 48 0 47 -47 0 -48 0
0 45 0 45 45 0 45 0 5 -45 5 -45 40 0 40 0 3 138 3 137 44 0 c38 0 45 -3 50
-23 4 -13 5 -27 4 -33 -5 -28 3 -34 46 -34 l45 0 0 -45 0 -45 -40 0 c-33 0
-42 -4 -52 -25 -8 -19 -8 -31 0 -50 10 -21 19 -25 52 -25 l40 0 0 -45 0 -45
-51 0 -50 0 4 -42 4 -43 46 -3 47 -3 0 -50 0 -49 -43 0 c-24 0 -46 -2 -48 -4
-3 -3 -3 -23 -1 -45 l4 -41 45 0 44 0 -3 -47 c-3 -48 -3 -48 -42 -51 -42 -4
-59 11 -50 41 12 38 -5 57 -52 57 l-44 0 0 -50 0 -50 -45 0 -45 0 0 -140 0
-140 45 0 45 0 0 -45 0 -45 -45 0 -45 0 0 -140 0 -140 45 0 45 0 0 -50 0 -50
40 0 c45 0 64 22 58 68 -3 26 -1 27 42 27 l45 0 0 -90 0 -90 -42 -3 c-24 -2
-43 -7 -44 -13 -1 -5 -1 -20 -1 -34 0 -14 0 -29 1 -34 1 -6 20 -11 44 -13 l42
-3 3 -137 3 -137 -86 -3 c-47 -2 -90 -1 -95 0 -6 2 -10 24 -10 48 l0 44 -45 0
-45 0 0 45 0 45 -140 0 -140 0 0 50 0 50 -49 0 -50 0 -3 -47 -3 -48 -137 -3
-138 -3 0 -44 0 -45 45 0 45 0 0 -45 0 -45 38 0 c53 0 64 -10 60 -56 -3 -39
-3 -39 -50 -42 l-48 -3 0 -45 0 -44 -46 0 -45 0 3 -47 3 -48 43 -3 42 -3 0
-45 0 -45 48 3 47 3 3 42 3 42 86 3 c47 2 89 0 94 -3 6 -3 8 -65 7 -140 l-3
-134 -90 0 -90 0 -5 45 -5 45 -47 3 -47 3 -3 -48 -3 -48 -43 -3 -43 -3 3 48 3
48 43 3 42 3 0 45 0 44 -90 0 -90 0 0 95 0 95 45 0 45 0 0 45 0 45 45 0 45 0
0 51 0 50 -87 -2 -88 -2 -5 89 -5 89 -45 5 -45 5 0 45 0 45 45 5 c45 5 45 5
48 47 3 42 3 42 45 45 l42 3 0 90 0 90 -90 0 -90 0 -3 -92 -3 -93 -94 0 -94 0
2 -42 2 -43 45 -5 45 -5 5 -45 c5 -45 5 -45 48 -48 l42 -3 0 -45 0 -44 -46 0
-45 0 3 -47 3 -46 40 -1 40 -1 3 -47 3 -47 47 -3 47 -3 0 -40 0 -40 -47 -3
-48 -3 0 -95 0 -94 -94 0 -93 0 5 114 c2 63 2 126 -2 140 -6 26 -8 26 -97 26
l-90 0 3 48 3 47 88 3 c96 3 88 10 91 -68 1 -23 6 -25 49 -28 l47 -3 0 50 0
51 -45 0 -44 0 -3 88 -3 87 -47 3 -48 3 0 -46 0 -46 -92 3 -93 3 -3 43 -3 42
96 0 96 0 -3 48 -3 47 -137 3 -138 3 0 44 0 45 -44 0 -45 0 -3 43 c-3 42 -3
42 -48 47 l-45 5 -3 48 -3 48 -92 -3 c-92 -3 -92 -3 -95 -30 -5 -46 13 -68 59
-68 l40 0 -3 -42 -3 -43 -92 -3 -92 -3 -3 93 -3 93 -42 3 -43 3 0 -140 0 -140
43 -3 42 -3 3 -48 3 -48 42 3 c42 3 42 3 47 48 l5 45 92 3 92 3 3 42 3 42 45
0 45 0 0 -40 0 -40 -47 -3 -48 -3 0 -49 0 -49 48 -3 47 -3 3 -42 c3 -42 3 -42
45 -45 42 -3 42 -3 45 -45 3 -42 3 -42 45 -45 l42 -3 3 -47 3 -48 -45 0 -46 0
0 -140 0 -140 45 0 44 0 3 93 3 92 90 0 90 0 0 -45 0 -45 -42 -3 -43 -3 0 -44
0 -44 92 -3 92 -3 1 -42 1 -43 -93 0 -93 0 0 45 0 45 -50 0 -50 0 0 -45 0 -45
-45 0 -45 0 0 45 0 45 -280 0 -280 0 0 -45 0 -45 -50 0 -50 0 0 45 0 45 -45 0
-45 0 0 44 0 45 43 3 42 3 3 48 3 47 -45 0 -46 0 0 45 0 45 -45 0 c-29 0 -45
4 -46 13 0 6 -2 25 -3 40 -2 33 14 49 46 47 45 -4 48 -1 48 45 l0 45 -45 0
c-29 0 -45 5 -46 13 -1 6 -2 26 -3 42 l-1 30 -92 3 -93 3 0 49 0 50 -95 0 -95
0 0 45 0 45 -95 0 -95 0 0 -140 0 -140 -140 0 -140 0 0 -45 0 -45 -45 0 -45 0
0 45 0 45 -50 0 -50 0 0 -45 c0 -29 4 -45 13 -46 6 0 28 -1 47 -2 34 -2 35 -3
38 -49 l3 -47 91 -3 92 -3 0 -40 1 -40 93 -3 92 -3 0 45 0 45 -42 3 -43 3 0
45 0 45 40 0 40 0 3 -47 3 -47 47 -3 47 -3 0 -40 0 -40 -47 -3 -47 -3 -3 -47
-3 -47 -137 -3 -138 -3 0 -139 0 -140 -45 0 -44 0 -3 92 -3 93 -47 3 -48 3 0
45 0 44 -46 0 -45 0 3 48 3 47 93 3 92 3 0 44 0 45 -145 0 -145 0 4 -33 c6
-48 -5 -59 -50 -55 -38 3 -39 4 -42 46 l-3 42 -95 0 -94 0 0 -44 0 -45 48 -3
47 -3 3 -47 3 -48 -50 0 -51 0 0 50 0 50 -45 0 -45 0 0 45 0 45 45 0 45 0 0
50 0 50 -90 0 -90 0 0 46 0 45 -47 -3 -48 -3 -3 -42 c-2 -30 1 -43 10 -44 7 0
29 -1 48 -2 35 -2 35 -3 35 -47 l0 -45 -47 -3 -48 -3 0 -45 0 -44 -45 0 -45 0
0 45 0 45 -44 0 c-52 0 -56 7 -56 95 0 88 4 95 56 95 l44 0 0 45 0 45 -95 0
-95 0 0 95 0 95 -44 0 -45 0 -3 -42 -3 -43 -48 -3 -48 -3 3 43 3 43 48 3 47 3
0 45 0 44 46 0 45 0 -3 48 -3 47 -42 3 -43 3 0 45 0 44 44 0 45 0 3 47 3 48
42 3 c42 3 42 3 45 45 l3 42 93 3 92 3 0 44 0 45 94 0 95 0 3 48 3 47 43 3 42
3 0 44 0 44 -42 3 c-43 3 -43 3 -46 46 l-3 42 -95 0 -94 0 0 -44 0 -45 48 -3
47 -3 0 -40 0 -40 -47 -3 -48 -3 0 45 0 46 -45 0 -45 0 0 95 0 95 -44 0 c-53
0 -56 -5 -56 -111 l0 -80 -42 3 -43 3 -5 90 -5 90 -42 3 -43 3 0 -140 0 -141
89 0 c54 0 91 -4 93 -11 2 -5 2 -28 0 -50 -4 -39 -4 -39 -48 -39 l-44 0 0 -45
0 -45 -44 0 -45 0 -3 43 -3 42 -47 3 -48 3 0 139 0 139 -42 3 c-43 3 -43 3
-48 48 l-5 45 -137 3 -138 3 0 44 0 45 90 0 c86 0 90 1 92 23 0 12 2 29 3 37
3 32 -16 40 -101 40 l-84 0 0 45 0 45 90 0 c86 0 90 1 96 24 13 55 6 61 -91
66 l-90 5 0 45 0 45 90 5 90 5 1 40 1 40 139 0 139 0 0 -40 0 -40 -45 -5 -45
-5 0 -45 0 -45 135 0 135 0 0 45 0 45 -42 3 -43 3 0 90 0 89 -32 0 c-46 0 -56
10 -60 55 -3 39 -4 40 -48 45 l-45 5 0 90 0 90 48 3 47 3 0 45 0 44 45 0 45 0
0 45 0 45 45 0 45 0 0 -45 0 -45 50 0 49 0 3 93 3 92 43 3 42 3 0 89 0 89 -42
3 c-43 3 -43 3 -48 48 l-5 45 -90 0 -90 0 0 -45 0 -45 43 -3 42 -3 0 -45 0
-44 -90 0 -90 0 0 45 0 45 -50 0 -49 0 -3 -137 -3 -138 -40 0 -40 0 -5 45 -5
45 -49 3 c-42 3 -48 1 -42 -14 3 -9 4 -32 0 -51 l-6 -34 -87 3 -86 3 -5 45 -5
45 -48 3 -48 3 3 42 c3 42 3 42 48 47 45 5 45 5 48 48 l3 42 -73 1 c-121 2
-113 -2 -113 49 l0 45 138 3 137 3 0 44 0 45 139 0 140 0 3 -42 3 -43 48 -3
47 -3 0 45 0 45 43 3 42 3 5 90 5 90 138 3 137 3 0 44 0 44 -42 3 -43 3 0 45
0 45 93 3 92 3 0 44 0 44 -47 3 -48 3 -3 43 -3 42 -95 0 -94 0 0 -140 0 -141
-87 3 -88 3 0 45 0 45 43 3 42 3 0 89 c0 95 -2 98 -56 92 -31 -4 -33 -7 -36
-46 l-3 -41 -45 0 -45 0 -3 43 -3 42 -45 0 -45 0 3 -137 3 -138 43 -3 42 -3 0
-90 0 -89 -140 0 -140 0 0 45 0 45 45 0 c42 0 44 1 51 34 8 47 0 56 -52 56
l-44 0 0 50 0 49 -92 3 -93 3 0 40 0 40 93 3 92 3 0 44 0 45 39 0 c49 0 57 10
60 70 l1 30 185 0 185 0 0 90 c0 86 1 90 24 96 56 14 61 6 64 -94 l3 -92 94 0
95 0 0 45 0 45 -45 0 -45 0 0 95 0 95 -44 0 c-48 0 -56 9 -56 61 0 28 1 29 49
29 l50 0 3 48 3 47 42 3 42 3 3 -48 3 -48 40 -3 c45 -4 55 -14 55 -59 0 -32 1
-33 45 -33 l45 0 0 185 c0 196 -2 188 45 188 46 0 44 3 47 -140 l3 -138 48 -3
47 -3 0 -45 0 -44 45 0 45 0 0 45 0 45 45 0 c48 0 47 -1 49 65 1 29 3 30 49
33 l47 3 0 45 0 45 -47 -3 c-46 -3 -48 -5 -49 -33 -1 -16 -2 -36 -3 -42 -1 -8
-17 -13 -46 -13 l-45 0 0 45 0 45 -45 0 -45 0 0 45 c0 44 -8 53 -44 46 -6 -1
-20 0 -33 4 -21 5 -24 11 -21 48 l3 42 48 3 47 3 0 -50 0 -51 140 0 140 0 0
49 0 50 -47 3 -48 3 -1 43 -2 42 49 0 49 0 0 45 c0 39 3 45 24 51 14 3 34 3
45 -1 19 -6 21 -2 21 44 l0 51 -44 0 -45 0 -3 -47 -3 -48 -36 3 c-43 4 -57
-11 -56 -58 2 -35 2 -35 -43 -35 l-45 0 -3 138 -3 137 141 0 140 0 0 -44z
m940 -186 l0 -140 -140 0 -140 0 0 140 0 140 140 0 140 0 0 -140z m1502 45 l3
-95 -47 0 -48 0 0 95 0 95 44 0 45 0 3 -95z m-3578 -1 c11 -4 16 -19 16 -50
l0 -44 45 0 45 0 0 -45 0 -45 -45 0 -45 0 0 44 0 45 -47 3 c-48 3 -48 3 -51
42 -2 24 2 42 10 47 15 10 50 11 72 3z m564 -3 c8 -5 12 -23 10 -47 -3 -38 -4
-39 -45 -42 l-43 -3 0 -44 0 -44 43 -3 42 -3 0 -45 0 -45 -174 -3 c-184 -3
-201 1 -201 43 0 52 6 55 101 55 l89 0 0 45 0 45 50 0 50 0 0 43 c0 24 3 47 7
50 9 10 55 8 71 -2z m3010 -228 l-3 -48 -42 -3 -43 -3 0 50 0 51 46 0 45 0 -3
-47z m-3560 -100 l3 -43 -50 0 -51 0 0 -45 0 -45 -45 0 -45 0 0 45 0 45 45 0
45 0 0 46 0 45 48 -3 47 -3 3 -42z m-378 -88 l0 -45 45 0 c48 0 57 -12 52 -70
-2 -22 -7 -25 -49 -28 l-48 -3 0 50 0 51 -45 0 -45 0 0 45 0 45 45 0 45 0 0
-45z m3940 0 l0 -44 93 -3 92 -3 3 -47 3 -48 -95 0 -96 0 0 50 0 50 -45 0 -45
0 0 45 0 45 45 0 45 0 0 -45z m-4220 -279 l0 -45 43 -3 42 -3 3 -47 3 -48 -45
0 -46 0 0 -45 0 -45 -45 0 -45 0 0 44 0 45 -47 3 c-48 3 -48 3 -51 42 -4 46 7
56 61 56 l37 0 0 45 0 45 45 0 45 0 0 -44z m3935 -286 l0 -45 -90 0 -90 0 -3
33 c-6 60 -2 63 95 60 l88 -3 0 -45z m1225 -750 l0 -50 -45 0 -45 0 0 -140 0
-140 45 0 45 0 0 -44 0 -45 48 -3 47 -3 3 -92 3 -93 44 0 45 0 0 -95 0 -95
-51 0 c-49 0 -50 1 -48 28 5 68 2 72 -45 72 l-45 0 -3 -47 -3 -48 -42 -3 c-42
-3 -42 -3 -45 -45 l-3 -42 -45 0 -45 0 0 40 0 40 48 3 47 3 0 50 0 49 45 0 45
0 0 140 0 140 -45 0 -45 0 0 45 0 44 -92 3 -93 3 -5 45 c-5 45 -5 45 -47 48
l-42 3 -3 -48 -3 -48 -92 -3 -93 -3 0 -89 0 -90 -140 0 -140 0 0 45 0 45 45 0
44 0 3 93 3 92 40 0 c35 0 40 -3 43 -25 7 -67 10 -70 57 -70 l44 0 3 48 3 47
93 3 92 3 0 44 0 45 -95 0 -95 0 0 45 0 45 95 0 95 0 0 -45 0 -45 90 0 90 0 0
44 0 45 -42 3 c-41 3 -43 5 -46 36 -6 62 -6 62 143 62 l135 0 0 -50z m-4690
-560 l0 -140 -140 0 -140 0 0 140 0 140 140 0 140 0 0 -140z m4500 0 l0 -141
-137 3 -138 3 -3 124 c-1 69 0 131 2 138 4 10 39 13 141 13 l135 0 0 -140z
m-652 -97 l3 -43 45 0 44 0 0 45 0 45 45 0 45 0 0 -185 0 -185 -45 0 -45 0 0
89 0 90 -42 3 c-37 3 -43 6 -46 28 -7 65 -10 69 -55 72 -38 3 -42 6 -45 31 -6
49 3 58 50 55 43 -3 43 -3 46 -45z m-3940 -166 c2 -10 1 -30 -2 -43 -6 -22
-11 -25 -49 -22 -42 3 -42 3 -45 46 l-3 43 48 -3 c37 -2 49 -7 51 -21z m4412
-66 l0 -90 43 -3 42 -3 0 -45 0 -45 -42 -3 -43 -3 0 51 0 52 -47 -3 -48 -3 -3
47 -3 47 -45 0 -44 0 0 45 0 45 95 0 95 0 0 -89z m-4885 -46 l0 -40 -47 -3
-48 -3 0 46 0 46 48 -3 47 -3 0 -40z m185 0 l0 -45 -45 0 -45 0 0 45 0 45 45
0 45 0 0 -45z m4598 -92 l-3 -48 -90 -1 -90 -2 -3 -91 -3 -91 -79 0 c-44 0
-83 -1 -87 -2 -5 -2 -9 18 -11 45 l-3 47 45 0 46 0 0 45 0 45 45 0 45 0 0 44
c0 26 5 46 13 49 6 3 49 6 95 6 l83 1 -3 -47z m-4598 -568 l0 -45 -90 0 -90 0
0 45 0 45 90 0 90 0 0 -45z m288 22 c2 -10 1 -29 -2 -43 -6 -23 -10 -24 -96
-24 l-90 0 0 45 0 46 92 -3 c81 -3 93 -5 96 -21z m180 -674 l-3 -48 -40 0 -40
0 -3 48 -3 47 46 0 46 0 -3 -47z m2162 -563 l0 -140 -140 0 -140 0 0 140 0
140 140 0 140 0 0 -140z m2250 0 l0 -141 -137 3 -138 3 -3 124 c-1 69 0 131 2
138 4 10 39 13 141 13 l135 0 0 -140z m-4129 -157 c0 -10 2 -28 3 -41 4 -30
-16 -44 -56 -40 -29 3 -33 7 -36 36 -5 52 3 62 48 62 31 0 40 -4 41 -17z
m4321 -30 l3 -48 93 -3 93 -3 -3 -137 -3 -137 -92 -3 -93 -3 0 140 0 140 -42
3 c-41 3 -43 5 -46 36 -5 52 3 62 47 62 l40 0 3 -47z m-4504 -95 l-3 -43 -45
0 -45 0 -3 43 -3 42 51 0 51 0 -3 -42z m1872 -3 l0 -45 -90 0 -90 0 0 45 0 45
90 0 90 0 0 -45z"/>
<path d="M4922 6338 l3 -93 40 0 40 0 3 93 3 92 -46 0 -46 0 3 -92z"/>
<path d="M3802 6331 c-8 -5 -12 -23 -10 -47 l3 -39 45 0 45 0 3 39 c4 43 -8
56 -48 56 -14 0 -31 -4 -38 -9z"/>
<path d="M3700 6195 l0 -45 45 0 45 0 0 45 0 45 -45 0 -45 0 0 -45z"/>
<path d="M3718 6053 c-14 -3 -18 -15 -18 -49 l0 -44 46 0 45 0 -3 47 c-3 41
-6 47 -28 49 -14 1 -33 0 -42 -3z"/>
<path d="M4172 5823 l3 -48 90 0 90 0 3 48 3 47 -96 0 -96 0 3 -47z"/>
<path d="M4540 5820 l0 -50 -90 0 -90 0 0 -45 0 -45 -190 0 -190 0 0 -44 0
-45 -42 -3 -43 -3 -3 -48 -3 -48 -47 3 -47 3 -3 93 -3 92 -45 0 -44 0 2 -187
3 -188 43 -3 42 -3 0 -45 0 -44 -45 0 -45 0 0 -45 0 -45 45 0 45 0 0 -50 0
-51 -137 3 -138 3 0 45 0 45 43 3 42 3 0 89 0 89 -42 3 c-43 3 -43 3 -48 48
-5 45 -5 45 -47 48 -42 3 -42 3 -45 45 l-3 42 -90 5 -90 5 -5 45 -5 45 -40 0
-40 0 -3 -187 -2 -188 44 0 45 0 3 93 3 92 93 3 93 3 -3 -48 -3 -48 -45 -5
-45 -5 0 -40 0 -40 48 -3 48 -3 -3 -42 -3 -42 -137 -3 -138 -3 0 -94 0 -95 45
0 45 0 0 45 0 45 45 0 45 0 0 -89 0 -90 -42 -3 -43 -3 -3 -47 -3 -48 -44 0
-44 0 -3 48 -3 47 -90 0 -90 0 0 -45 0 -45 42 -3 c42 -3 42 -3 45 -45 l3 -42
93 -3 92 -3 0 -49 0 -50 -45 0 -44 0 -3 -87 -3 -88 -48 -3 -48 -3 3 -47 3 -47
45 -5 c45 -5 45 -5 48 -47 l3 -43 -95 0 -95 0 -3 -92 -3 -93 -45 -5 c-45 -5
-45 -5 -48 -47 -3 -42 -3 -42 -45 -45 l-42 -3 -3 -48 -3 -49 43 4 43 3 5 -45
5 -45 48 -3 48 -3 -3 -92 -3 -92 -48 1 c-37 0 -47 -3 -46 -15 1 -9 1 -51 0
-93 l-1 -77 -42 -3 -43 -3 0 -45 0 -45 43 -3 42 -3 0 50 0 51 50 0 50 0 0 45
0 45 45 0 45 0 0 -46 0 -45 48 3 47 3 3 87 3 87 -48 3 -48 3 0 45 0 45 45 1
45 0 3 47 3 46 42 3 c42 3 42 3 45 46 l3 42 -95 0 -96 0 0 -45 0 -45 -45 0
-46 0 3 93 3 92 90 5 90 5 3 138 3 137 44 0 45 0 0 184 0 184 28 4 c50 7 61 0
64 -45 l3 -42 48 -3 47 -3 0 -44 0 -44 -47 -3 c-42 -3 -48 -6 -51 -27 -2 -12
-1 -34 2 -47 6 -21 12 -24 51 -24 l45 0 0 -44 0 -45 -47 -3 -48 -3 -3 -42 -3
-43 50 0 50 0 3 -47 3 -48 43 -3 42 -3 0 -45 0 -44 -44 0 -45 0 -3 -47 -3 -48
-45 0 -45 0 -3 48 -3 48 -42 -3 -42 -3 0 -45 0 -45 42 -3 c42 -3 42 -3 45 -45
l3 -42 45 0 45 0 3 43 3 42 44 0 44 0 3 -42 c3 -43 3 -43 46 -46 33 -3 42 -7
43 -23 1 -10 2 -29 3 -41 1 -20 7 -23 49 -26 l48 -3 -3 -47 -3 -47 -90 0 -90
0 -5 45 -5 45 -183 3 -183 2 3 -47 3 -48 87 -3 87 -3 3 -42 c3 -42 3 -42 48
-47 45 -5 45 -5 48 -47 l3 -43 -44 0 c-50 0 -57 -9 -57 -66 l0 -34 -185 0
-185 0 0 -45 0 -44 138 -3 137 -3 3 -47 3 -48 45 0 44 0 0 -45 0 -45 50 0 50
0 0 -140 0 -140 -50 0 -50 0 0 45 0 45 -45 0 -45 0 0 -45 0 -45 -44 0 -45 0
-3 -42 -3 -43 -142 -3 -143 -3 0 -37 c0 -20 4 -42 8 -49 5 -9 50 -13 142 -15
l135 -3 3 -42 3 -43 45 0 44 0 0 -50 0 -50 -79 0 c-106 0 -111 3 -111 56 l0
45 -92 -3 -93 -3 -5 -45 c-5 -45 -5 -45 -47 -48 l-43 -3 0 -45 0 -44 44 0 45
0 3 -42 c3 -43 3 -43 48 -48 l45 -5 3 -47 3 -47 92 -3 92 -3 3 -42 3 -43 44 0
44 0 3 93 3 92 43 3 42 3 0 44 0 44 48 3 47 3 3 43 3 42 45 0 44 0 0 -90 0
-89 93 -3 92 -3 0 -45 0 -45 -135 0 -135 0 -5 45 -5 45 -45 0 -45 0 -3 -138
-3 -137 66 -1 c36 -1 77 -1 93 -2 25 -1 27 2 30 46 l3 47 139 0 139 0 3 43 c3
42 3 42 48 47 l45 5 0 45 0 45 -45 5 c-45 5 -45 5 -48 47 l-3 42 48 3 48 3 3
42 3 43 -50 0 -51 0 0 190 0 190 -45 0 -44 0 -3 -92 -3 -93 -92 -3 -93 -3 0
50 0 50 47 3 46 3 -1 130 c-1 72 -1 133 -2 138 0 4 -20 7 -45 7 l-45 0 0 45 0
45 -45 0 -45 0 0 45 0 45 140 0 140 0 0 -45 0 -45 45 0 45 0 0 45 0 45 -45 0
-45 0 0 50 0 50 45 0 45 0 0 45 0 45 -45 0 -45 0 0 -45 0 -45 -95 0 -96 0 3
138 3 137 138 3 137 3 0 -46 0 -46 48 3 47 3 3 43 3 42 45 0 44 0 0 -45 0 -45
140 0 140 0 0 45 0 45 -140 0 -140 0 0 45 0 45 -45 0 -45 0 0 -45 0 -45 -51 0
-50 0 3 43 c3 36 6 42 28 45 68 7 71 10 68 55 l-3 42 -92 3 -92 3 -3 42 -3 42
-48 3 c-48 3 -48 4 -47 35 3 54 2 56 -42 59 l-43 3 -3 47 -3 47 48 3 48 3 -1
75 c0 112 2 110 -99 110 l-85 0 0 45 0 45 45 0 45 0 0 45 0 45 45 0 c29 0 45
4 45 13 2 26 2 133 1 155 -1 21 -5 22 -91 22 l-90 0 0 45 0 45 139 0 140 0 3
-42 c3 -43 3 -43 46 -46 l42 -3 0 45 0 46 -45 0 -45 0 0 50 0 50 44 0 45 0 3
43 c3 42 3 42 48 47 l45 5 5 45 5 45 40 0 40 0 3 -92 3 -93 -46 0 -46 0 3 -47
c3 -51 1 -49 66 -52 21 -1 22 -5 22 -90 l0 -90 -42 -3 -43 -3 -3 -92 -3 -93
46 0 45 0 0 -140 0 -140 -44 0 -45 0 -3 -47 -3 -48 -45 0 -45 0 -3 48 -3 48
-42 -3 -42 -3 0 -45 0 -45 42 -3 c42 -3 42 -3 45 -45 l3 -42 45 0 45 0 3 42
c3 42 3 42 45 45 l42 3 3 47 3 47 46 3 46 3 -2 81 c-3 102 1 106 106 102 l78
-3 3 -47 3 -48 -45 0 -46 0 0 -45 0 -45 45 0 45 0 0 46 0 45 48 -3 47 -3 5
-90 5 -90 43 -3 42 -3 0 -90 0 -89 174 0 c96 0 181 -3 190 -6 12 -5 15 1 15
27 -3 69 -2 69 46 69 l45 0 0 -47 0 -48 -42 0 -43 0 0 -45 0 -45 40 0 40 0 5
45 5 45 40 0 40 0 5 -45 5 -45 48 -3 48 -3 -3 -42 c-3 -42 -3 -42 -48 -47 -45
-5 -45 -5 -48 -47 -3 -42 -3 -42 -45 -45 l-42 -3 0 -45 0 -45 43 -3 42 -3 0
-45 0 -44 -140 0 -140 0 0 45 0 45 -44 0 -45 0 -3 48 -3 47 -45 5 c-45 5 -45
5 -48 47 l-3 42 48 3 48 3 3 43 3 43 -48 -3 -48 -3 -3 -42 c-3 -42 -3 -42 -45
-45 -42 -3 -42 -3 -45 -45 l-3 -42 -92 -3 -92 -3 -3 -142 -3 -143 -139 0 -140
0 0 49 0 50 47 3 46 3 1 40 1 40 -47 3 -48 3 0 -45 0 -46 -46 0 -45 0 3 -47 3
-48 43 -3 42 -3 0 -89 0 -89 -92 -3 -93 -3 0 -45 0 -45 45 -5 c45 -5 45 -5 48
-47 l3 -43 45 0 44 0 0 -140 0 -140 -46 0 -45 0 3 -47 3 -48 43 -3 42 -3 0
-140 0 -139 -45 0 -45 0 0 -45 0 -45 45 0 45 0 0 45 0 44 93 3 92 3 3 92 3 93
44 0 45 0 0 45 0 45 95 0 95 0 0 -45 0 -45 45 0 45 0 0 45 0 45 -44 0 -45 0
-3 48 -3 47 -42 3 -43 3 0 44 0 45 278 2 277 3 0 45 0 45 -45 5 -45 5 3 42 4
43 -51 0 -51 0 0 45 0 45 -45 0 -45 0 0 50 0 49 93 3 92 3 2 30 c0 17 2 36 2
43 1 8 17 12 46 12 l45 0 0 -95 0 -95 -44 0 c-43 0 -44 -1 -48 -35 -6 -48 3
-57 48 -53 38 3 39 4 42 46 l3 42 95 0 95 0 -3 -42 c-3 -43 -3 -43 -48 -48
-45 -5 -45 -5 -48 -47 l-3 -43 38 0 c49 0 63 -14 63 -62 l0 -38 -51 0 -50 0 3
-42 3 -43 48 -3 47 -3 0 45 0 46 185 0 185 0 0 -45 0 -45 282 2 282 3 1 40 0
40 48 3 47 3 0 -45 0 -46 -50 0 -49 0 2 -48 2 -47 45 0 45 0 3 48 3 47 45 0
44 0 0 45 0 45 234 0 235 0 3 -42 3 -43 47 -3 47 -3 3 -47 3 -47 40 0 40 0 0
45 0 45 -42 3 c-42 3 -42 3 -45 45 l-3 42 -47 3 -47 3 -3 47 -3 47 -42 3 -43
3 0 45 0 44 45 0 45 0 0 45 0 45 -232 2 -233 3 -3 48 -3 47 -44 0 -44 0 -3 43
-3 42 -48 3 -47 3 2 -43 3 -43 -187 -3 -188 -2 0 45 0 45 -44 0 -45 0 -3 -42
-3 -43 -47 -3 -48 -3 0 45 0 46 -140 0 -140 0 0 45 0 45 45 0 44 0 3 93 3 92
45 5 45 5 5 45 c5 45 5 45 48 48 l42 3 0 45 0 44 -45 0 -45 0 0 46 0 45 -47
-3 -48 -3 0 -40 0 -40 48 -3 47 -3 0 -45 0 -44 -95 0 -95 0 0 89 0 90 -42 3
-43 3 0 45 0 45 183 3 182 2 0 140 0 139 48 3 47 3 0 40 0 40 -47 3 -48 3 0
140 0 139 50 0 50 0 0 50 0 50 45 0 45 0 0 45 0 44 -92 3 -93 3 -3 93 -3 92
-44 0 -45 0 0 45 0 45 45 0 45 0 0 50 0 50 -182 -2 -183 -3 -3 -47 -3 -48 -49
0 -49 0 -3 48 -3 47 -42 3 -43 3 0 140 0 140 43 -3 c42 -3 42 -3 47 -48 l5
-45 48 -3 47 -3 0 -45 0 -44 90 0 90 0 0 79 c0 106 3 111 56 111 l44 0 0 45 0
45 45 0 45 0 0 95 0 94 -92 3 -93 3 -3 43 -3 42 -45 0 -45 0 3 48 c3 49 3 48
61 51 l27 1 0 90 0 90 -90 0 -90 0 0 -90 0 -90 -37 0 c-60 0 -64 -7 -61 -101
l3 -84 48 -3 47 -3 0 -44 c0 -47 -3 -50 -70 -57 -22 -3 -25 -9 -28 -45 l-3
-43 -45 0 -44 0 0 45 0 45 -44 0 c-37 0 -44 -3 -48 -22 -2 -13 -2 -33 0 -45 3
-20 9 -23 48 -23 l44 0 0 -45 0 -45 -45 0 c-29 0 -45 -4 -46 -12 0 -7 -1 -49
-2 -93 l-2 -80 -45 0 -45 0 -3 183 -2 182 -83 0 c-95 0 -107 7 -107 62 l0 37
143 3 142 3 3 42 c3 42 3 42 45 45 42 3 42 3 45 45 3 38 0 43 -21 48 -14 4
-35 5 -48 3 -23 -3 -24 0 -21 45 l4 47 -96 0 -96 0 0 -45 0 -45 -38 0 c-55 0
-62 -12 -62 -106 l0 -83 -42 -3 -43 -3 -3 -92 -3 -93 -44 0 -45 0 0 139 0 140
43 3 42 3 0 45 0 45 -42 3 -43 3 0 45 0 44 90 0 90 0 0 45 0 45 96 0 95 0 -3
48 -3 47 -92 3 -93 3 0 -51z m-469 -278 c3 -23 3 -44 1 -47 -3 -3 -25 -5 -49
-5 l-43 0 0 -46 0 -45 48 3 c40 3 47 6 44 22 -2 10 -1 29 2 42 6 21 12 24 51
24 l44 0 3 48 3 47 70 3 c106 5 115 0 115 -53 l0 -45 -95 0 -95 0 0 -45 0 -45
45 0 45 0 0 -44 c0 -32 -5 -46 -17 -50 -9 -4 -71 -6 -138 -5 l-120 1 -3 -46
-3 -46 95 0 96 0 0 -45 0 -45 44 0 45 0 3 43 3 42 48 3 47 3 0 -45 0 -46 45 0
45 0 0 45 0 45 45 0 44 0 3 -92 3 -93 48 -3 48 -3 -3 -42 -3 -42 -45 0 -45 0
-3 42 -3 42 -87 3 -87 3 -3 48 -3 47 -50 0 -50 0 3 -92 3 -93 45 -5 45 -5 3
-92 3 -93 44 0 44 0 3 48 3 47 40 0 40 0 3 -47 3 -48 -45 0 -46 0 0 -45 0 -45
-45 0 -45 0 0 45 0 45 -50 0 -50 0 0 -95 0 -95 96 0 95 0 -3 -42 c-3 -43 -3
-43 -45 -46 l-43 -3 0 -44 0 -44 88 -3 87 -3 0 -45 0 -45 -87 -3 -88 -3 0 51
0 50 -96 0 -95 0 3 -47 3 -48 43 -3 42 -3 0 -45 0 -44 -140 0 -140 0 0 45 0
45 38 0 c41 0 63 15 55 36 -3 8 -2 25 1 39 6 22 12 25 51 25 l45 0 0 45 0 45
45 0 45 0 0 45 0 44 -137 3 -138 3 -3 48 -3 47 95 0 96 0 0 45 0 45 -45 0
c-53 0 -58 9 -53 115 l3 70 45 5 45 5 3 93 3 92 -96 0 -95 0 0 -95 0 -95 -95
0 -95 0 0 -44 0 -45 -42 -3 -43 -3 -3 -92 -3 -93 -44 0 c-43 0 -51 6 -46 34 1
6 0 20 -3 32 -5 19 -14 23 -49 26 l-42 3 0 90 0 90 138 3 137 3 0 44 0 44 48
3 47 3 0 45 0 45 -47 3 -48 3 0 45 0 44 50 0 50 0 0 45 c0 48 2 49 63 45 26
-1 27 0 27 49 l0 51 -45 0 -45 0 0 45 0 45 45 0 45 0 0 43 c0 24 3 46 6 49 3
3 22 5 42 4 36 -1 37 -3 43 -44z m747 40 c8 -5 11 -24 10 -48 l-3 -39 -93 -3
-92 -3 0 51 0 50 83 0 c45 0 88 -4 95 -8z m382 -137 l0 -45 45 0 45 0 0 -38
c0 -21 5 -43 12 -50 7 -7 29 -12 50 -12 l38 0 0 -45 0 -46 -92 3 -93 3 -3 93
-3 92 -44 0 -45 0 0 45 0 45 45 0 45 0 0 -45z m-1312 -97 l3 -48 -50 0 -51 0
0 43 c0 24 3 47 7 51 4 4 25 6 48 4 l40 -3 3 -47z m-380 -92 l3 -46 -45 0 -46
0 0 43 c0 24 2 46 4 48 2 2 22 4 43 3 l38 -1 3 -47z m1687 -186 l0 -45 -42 -3
-43 -3 0 44 c0 53 5 59 50 55 34 -3 35 -4 35 -48z m-1791 -236 c14 -5 16 -28
16 -145 l0 -138 -47 2 -48 3 -3 47 -3 47 -45 0 -44 0 0 45 0 45 45 0 45 0 0
50 0 50 34 0 c19 0 41 -3 50 -6z m1516 -44 l0 -50 45 0 45 0 0 -45 0 -45 50 0
50 0 0 45 0 45 90 0 90 0 0 -45 0 -45 50 0 51 0 -3 -92 -3 -93 -137 -3 -138
-3 0 -44 0 -44 43 -3 42 -3 3 -47 3 -48 45 0 44 0 0 38 c0 59 7 63 101 60 l84
-3 3 -47 3 -48 -45 0 -46 0 0 -90 0 -90 -187 -2 -188 -3 0 -90 0 -90 48 -3 47
-3 0 45 0 46 45 0 45 0 0 -45 0 -45 -45 0 -44 0 -3 -92 -3 -93 -92 -3 -93 -3
0 46 0 45 -45 0 -45 0 0 -46 0 -45 -47 3 -48 3 -3 43 -3 42 50 0 51 0 0 50 0
50 45 0 46 0 -3 93 -3 92 -42 3 c-24 2 -43 6 -44 10 0 4 -2 19 -4 33 -5 37 5
47 50 51 39 3 40 4 43 45 l3 42 -93 3 -93 3 -5 45 c-5 45 -5 45 -47 48 l-43 3
0 45 0 44 140 0 140 0 0 44 0 45 43 3 42 3 3 48 3 47 -45 0 -45 0 -3 -47 -3
-48 -114 -3 c-174 -5 -161 -16 -161 142 0 98 3 136 13 139 6 3 69 6 140 6
l127 1 0 -50z m-1412 -472 l3 -48 -45 0 -46 0 0 51 0 50 43 -3 42 -3 3 -47z
m1222 -278 l0 -140 -140 0 -140 0 0 133 c0 74 3 137 7 140 3 4 66 7 140 7
l133 0 0 -140z m750 -94 l0 -45 -42 -3 -43 -3 -5 -90 -5 -90 -92 -3 -93 -3 0
45 0 45 43 3 42 3 3 80 c1 44 4 86 7 93 3 8 31 12 95 12 l90 0 0 -44z m-842
-188 l-3 -43 -45 0 c-42 0 -45 2 -48 28 -6 48 3 57 53 57 l46 0 -3 -42z m456
-424 c11 -4 16 -19 16 -50 l0 -44 45 0 45 0 0 -45 0 -45 -45 0 -45 0 0 -140 0
-140 185 0 185 0 0 -50 0 -50 45 0 c39 0 45 3 51 25 3 14 4 37 2 50 -5 24 -3
25 43 25 l49 0 0 -140 0 -140 96 0 95 0 -3 43 c-3 42 -3 42 -48 47 -45 5 -45
5 -48 48 l-3 42 95 0 96 0 0 -89 c0 -84 1 -89 23 -93 44 -8 72 6 73 37 1 17 2
35 3 42 0 7 20 13 44 15 42 3 42 3 45 46 l3 42 -45 0 c-41 0 -45 2 -49 28 -12
69 -10 72 44 72 l49 0 0 -50 0 -50 45 0 45 0 0 -140 0 -140 -44 0 -45 0 -3 48
-3 47 -42 3 c-46 3 -46 4 -47 -70 l0 -28 -188 0 -188 0 0 51 0 50 -42 -3 c-37
-3 -43 -6 -46 -28 -7 -67 -10 -70 -57 -70 l-45 0 0 140 0 141 -92 -3 -93 -3 0
-40 0 -40 45 -5 c45 -5 45 -5 48 -47 l3 -43 -95 0 -96 0 0 90 0 90 -45 0 -45
0 0 49 0 50 -47 3 -48 3 -3 43 -3 42 -45 0 -44 0 0 44 0 45 43 3 42 3 3 48 3
47 50 0 49 0 0 45 0 45 -50 0 -50 0 0 50 0 50 34 0 c19 0 41 -3 50 -6z m-1676
-191 l3 -93 -51 0 -50 0 0 96 0 95 48 -3 47 -3 3 -92z m1124 -40 l3 -48 45 0
45 0 3 48 3 47 45 0 44 0 0 -50 0 -50 45 0 c39 0 45 -3 51 -24 12 -49 2 -61
-46 -61 l-45 0 -3 42 c-3 41 -3 41 -48 45 l-44 3 0 -92 0 -92 -92 -3 -93 -3
-5 -45 -5 -45 -40 0 -40 0 -5 90 -5 90 -47 3 -48 3 0 -140 0 -141 140 0 140 0
0 -45 0 -45 -140 0 -140 0 0 45 0 45 -140 0 -140 0 0 45 0 44 93 3 92 3 0 45
0 45 -45 5 -45 5 0 40 0 40 93 3 92 3 0 44 0 45 95 0 95 0 0 43 c0 24 3 47 7
50 3 4 23 7 44 7 l38 0 3 -47z m-1222 -467 c0 -39 -3 -45 -22 -48 -13 -2 -33
-2 -45 0 -20 4 -23 11 -23 48 l0 44 45 0 45 0 0 -44z m190 -1 l0 -45 -45 0
-45 0 0 45 0 45 45 0 45 0 0 -45z m1220 0 l0 -45 -45 0 -45 0 0 45 0 45 45 0
45 0 0 -45z m1780 0 l0 -45 -90 0 -90 0 0 45 0 45 90 0 90 0 0 -45z m-2342
-97 l3 -48 45 0 44 0 0 -95 0 -95 -140 0 -140 0 0 50 0 49 93 3 92 3 3 43 3
42 -45 0 c-44 0 -45 1 -52 35 -9 47 9 67 55 63 35 -3 36 -4 39 -50z m-848 -93
l0 -45 50 0 50 0 0 45 0 45 45 0 45 0 0 -45 0 -44 93 -3 92 -3 5 -45 c5 -45 5
-45 48 -48 l42 -3 0 -45 0 -45 -92 3 -93 3 0 40 c0 40 0 40 -45 45 l-45 5 -3
48 -3 47 -44 0 -44 0 -3 -47 -3 -48 -45 0 -45 0 -3 48 -3 47 -45 0 -44 0 0 45
0 45 45 0 45 0 0 -45z m0 -191 l0 -45 -42 3 c-43 3 -43 3 -46 46 l-3 42 45 0
46 0 0 -46z m-185 -89 l0 -40 -47 -3 -48 -3 0 46 0 46 48 -3 47 -3 0 -40z"/>
<path d="M3890 5165 l0 -45 45 0 45 0 0 45 0 45 -45 0 -45 0 0 -45z"/>
<path d="M4177 4834 c-4 -4 -7 -27 -7 -51 l0 -43 46 0 45 0 -3 48 c-3 46 -4
47 -38 50 -20 2 -39 0 -43 -4z"/>
<path d="M4829 4730 c-1 -5 -1 -21 -1 -35 0 -14 0 -29 1 -35 1 -5 21 -10 46
-10 l45 0 0 45 0 45 -45 0 c-25 0 -45 -4 -46 -10z"/>
<path d="M5112 4603 l3 -48 85 0 85 0 3 48 3 47 -91 0 -91 0 3 -47z"/>
<path d="M4920 4415 l0 -45 45 0 45 0 0 45 0 45 -45 0 -45 0 0 -45z"/>
<path d="M5014 4357 c-3 -9 -4 -30 -2 -49 3 -32 5 -33 51 -36 l47 -3 0 -45 0
-44 45 0 45 0 0 45 0 45 -44 0 -45 0 -3 48 -3 47 -43 3 c-30 2 -44 -1 -48 -11z"/>
<path d="M4545 4067 c-4 -14 -5 -36 -3 -48 3 -21 8 -24 48 -24 l45 0 0 45 0
45 -42 3 c-38 3 -43 0 -48 -21z"/>
<path d="M4452 3008 c3 -43 3 -43 46 -46 l42 -3 0 45 0 46 -46 0 -45 0 3 -42z"/>
<path d="M2993 5773 l-43 -4 0 -45 0 -44 45 0 45 0 0 50 c0 28 -1 49 -2 48 -2
-1 -22 -3 -45 -5z"/>
<path d="M3324 5666 c-3 -8 -4 -27 -2 -43 3 -26 7 -28 51 -31 l47 -3 0 45 0
46 -45 0 c-30 0 -47 -5 -51 -14z"/>
<path d="M3510 5634 l0 -45 47 3 c51 3 49 1 45 66 -2 19 -7 22 -47 22 l-45 0
0 -46z"/>
<path d="M2760 5350 l0 -50 45 0 45 0 0 50 0 50 -45 0 -45 0 0 -50z"/>
<path d="M2290 5165 l0 -46 48 3 47 3 0 40 0 40 -47 3 -48 3 0 -46z"/>
<path d="M5580 5165 l0 -45 45 0 45 0 0 45 0 45 -45 0 -45 0 0 -45z"/>
<path d="M6047 5203 c-4 -3 -7 -24 -7 -45 l0 -38 50 0 50 0 0 45 0 45 -43 0
c-24 0 -47 -3 -50 -7z"/>
<path d="M2290 4606 c0 -48 9 -56 61 -56 30 0 31 -2 33 -57 1 -26 -2 -28 -44
-33 -45 -5 -45 -5 -48 -48 l-3 -43 48 3 48 3 3 42 c3 42 3 42 45 45 l42 3 0
90 0 90 -92 3 -93 3 0 -45z"/>
<path d="M3707 4364 c-4 -4 -7 -27 -7 -51 l0 -43 -50 0 -50 0 3 -42 2 -43 47
-3 47 -3 3 -92 3 -92 90 0 90 0 0 45 0 45 -47 3 -48 3 0 45 0 44 -45 0 -45 0
0 44 0 45 43 3 42 3 0 45 c0 44 -1 45 -35 48 -20 2 -39 0 -43 -4z"/>
<path d="M2760 4135 l0 -45 45 0 45 0 0 45 0 45 -45 0 -45 0 0 -45z"/>
<path d="M5580 4039 l0 -50 43 3 42 3 3 48 3 47 -45 0 -46 0 0 -51z"/>
<path d="M5767 4083 c-4 -3 -7 -46 -7 -94 l0 -88 -42 -3 -43 -3 -3 -92 -3 -93
-44 0 -45 0 0 -44 0 -45 43 -3 42 -3 3 -137 3 -137 -43 -3 c-37 -3 -43 -6 -46
-28 -7 -65 -10 -69 -55 -72 -42 -3 -42 -3 -45 -45 -3 -42 -3 -42 -45 -45 l-42
-3 0 -45 0 -45 40 0 40 0 3 48 3 48 47 -3 47 -3 3 -47 3 -48 44 0 44 0 3 -42
c3 -43 3 -43 45 -46 l42 -3 3 93 3 93 90 0 90 0 0 -45 0 -45 -42 -3 -43 -3 0
-45 0 -45 93 3 c84 3 92 5 89 22 -2 10 -1 29 2 42 5 19 14 23 49 26 l42 3 3
48 3 47 45 0 44 0 0 -37 c0 -60 7 -64 101 -61 l84 3 0 45 0 45 -92 3 -93 3 0
44 0 45 -44 0 -45 0 -3 48 -3 47 -45 0 c-42 0 -45 -2 -43 -25 1 -14 0 -35 -3
-48 l-4 -22 -183 2 -182 3 0 45 0 45 42 3 42 3 3 87 3 87 93 3 92 3 0 -91 0
-90 45 0 c36 0 45 4 46 18 1 9 3 24 4 32 1 8 3 20 4 27 0 6 20 13 44 15 l42 3
3 45 3 45 -93 0 -93 0 -5 45 c-5 45 -5 45 -47 48 l-43 3 0 45 0 44 90 0 c65 0
90 3 91 13 1 11 0 122 -1 160 0 14 -9 17 -45 17 l-45 0 0 45 0 45 -45 0 -45 0
0 50 0 50 -43 0 c-24 0 -47 -3 -50 -7z m181 -230 l-3 -48 -70 -2 c-109 -3
-115 -1 -115 52 l0 45 96 0 95 0 -3 -47z m-188 -187 l0 -44 -45 -4 -45 -3 0
47 0 48 45 0 45 0 0 -44z m380 -472 l0 -45 -47 3 c-47 3 -48 3 -48 38 -1 48 1
50 51 50 l44 0 0 -46z"/>
<path d="M3980 3710 l0 -89 93 -3 92 -3 5 -45 5 -45 90 0 90 0 0 90 0 90 -45
5 c-45 5 -45 5 -48 48 l-3 42 -140 0 -139 0 0 -90z"/>
<path d="M7218 3523 l-48 -4 0 -45 0 -44 -45 0 -45 0 0 -140 0 -140 45 0 45 0
0 140 0 140 45 0 c25 0 45 3 46 8 2 19 6 92 5 90 -1 -1 -22 -3 -48 -5z"/>
<path d="M2482 3338 l3 -93 43 -3 42 -3 0 44 c0 50 9 57 66 57 35 0 35 0 32
43 l-3 42 -93 3 -93 3 3 -93z"/>
<path d="M4828 3408 c-2 -13 -2 -33 0 -45 4 -20 10 -23 49 -23 l44 0 -3 43
c-3 42 -3 42 -45 45 -37 3 -42 0 -45 -20z"/>
<path d="M4544 2386 c-3 -8 -4 -29 -2 -48 l3 -33 144 -3 143 -3 -5 48 c-3 26
-6 49 -6 51 -1 1 -62 2 -136 2 -107 0 -137 -3 -141 -14z"/>
<path d="M6515 2388 c-3 -8 -4 -70 -3 -139 l3 -124 93 -3 92 -3 0 46 0 45 -45
0 -44 0 -3 93 -3 92 -43 3 c-29 2 -44 -1 -47 -10z"/>
<path d="M4829 2283 c-4 -75 5 -68 -96 -71 l-93 -3 0 -45 0 -45 93 3 92 3 3
43 3 42 45 0 44 0 0 -45 0 -45 45 0 45 0 0 -50 0 -50 -45 0 -45 0 0 -45 0 -45
45 0 45 0 0 45 0 45 50 0 50 0 0 -140 0 -140 -50 0 -50 0 0 44 c0 48 -9 56
-61 56 -28 0 -29 -1 -29 -50 l0 -50 45 0 45 0 0 -45 0 -45 49 0 50 0 3 -47 3
-48 40 0 40 0 0 45 0 45 -42 3 -43 3 0 45 0 44 185 0 185 0 0 -45 0 -44 -92
-3 -93 -3 -3 -36 c-4 -52 12 -60 105 -57 l78 3 3 47 3 47 47 3 47 3 0 40 0 40
-48 3 -48 3 3 47 3 47 48 3 47 3 0 -50 0 -51 45 0 45 0 0 50 0 50 -45 0 -45 0
0 45 0 45 -50 0 -50 0 0 45 0 45 -45 0 -45 0 0 -90 0 -90 -95 0 -95 0 0 90 0
90 -45 0 -45 0 0 50 0 50 -50 0 -50 0 0 45 0 45 -45 0 -45 0 0 45 0 45 -45 0
c-36 0 -45 -4 -46 -17z"/>
<path d="M5670 2255 l0 -46 93 3 92 3 3 43 3 42 -95 0 -96 0 0 -45z"/>
<path d="M5952 2258 l3 -43 45 0 45 0 0 40 -1 40 -48 3 -47 3 3 -43z"/>
<path d="M6890 2255 l0 -45 -45 0 -45 0 0 -45 0 -45 45 0 45 0 0 45 0 45 45 0
45 0 0 45 0 45 -45 0 -45 0 0 -45z"/>
<path d="M7080 2255 l0 -45 45 0 45 0 0 45 0 45 -45 0 -45 0 0 -45z"/>
<path d="M6329 2071 l-4 -51 48 0 48 0 -3 48 -3 47 -41 3 -42 3 -3 -50z"/>
<path d="M7087 2114 c-4 -4 -7 -27 -7 -51 l0 -43 45 0 45 0 0 -45 0 -45 44 0
c47 0 53 6 52 55 -1 29 -3 30 -48 33 l-47 3 -3 47 c-3 46 -4 47 -38 50 -20 2
-39 0 -43 -4z"/>
<path d="M2956 1833 c-3 -4 -6 -26 -6 -50 l0 -43 45 0 45 0 0 49 0 49 -39 0
c-21 0 -42 -2 -45 -5z"/>
<path d="M3517 1834 c-4 -4 -7 -27 -7 -51 l0 -43 44 0 c51 0 61 15 48 65 -7
25 -14 30 -43 33 -19 2 -38 0 -42 -4z"/>
<path d="M6140 1695 l0 -45 45 0 45 0 0 45 0 45 -45 0 -45 0 0 -45z"/>
<path d="M3892 1603 l3 -48 43 -3 43 -3 -3 48 -3 48 -43 3 -43 3 3 -48z"/>
<path d="M4552 6331 c-8 -5 -12 -23 -10 -47 l3 -39 45 0 45 0 3 39 c4 43 -8
56 -48 56 -14 0 -31 -4 -38 -9z"/>
<path d="M1920 5541 l0 -51 46 0 45 0 -3 48 -3 47 -42 3 -43 3 0 -50z"/>
<path d="M2294 4076 c-3 -8 -4 -29 -2 -48 3 -31 5 -33 46 -36 23 -2 43 0 43 5
13 79 7 93 -42 93 -25 0 -42 -5 -45 -14z"/>
<path d="M6807 4084 c-4 -4 -7 -27 -7 -51 l0 -44 43 3 42 3 0 45 c0 44 -1 45
-35 48 -20 2 -39 0 -43 -4z"/>
<path d="M4550 1825 c-6 -8 -10 -29 -8 -47 3 -32 4 -33 48 -33 l45 0 3 43 c2
23 0 43 -5 43 -41 8 -74 5 -83 -6z"/>
<path d="M6807 1833 c-4 -3 -7 -26 -7 -50 l0 -44 43 3 c41 3 42 4 45 42 2 24
-2 42 -10 47 -16 10 -62 12 -71 2z"/>
<path d="M3420 6855 c0 -29 4 -45 13 -46 51 -4 167 -1 167 4 0 4 0 25 0 47 l0
40 -90 0 -90 0 0 -45z"/>
<path d="M3797 6894 c-12 -12 -8 -82 6 -87 6 -2 23 -3 37 -2 14 1 31 3 38 4 9
1 12 14 10 44 -3 41 -4 42 -43 45 -23 2 -44 0 -48 -4z"/>
<path d="M5957 6894 c-4 -4 -7 -25 -7 -46 0 -39 2 -40 55 -40 45 0 46 1 43 45
-3 41 -4 42 -43 45 -23 2 -44 0 -48 -4z"/>
<path d="M6800 6570 l0 -330 323 2 322 3 3 328 2 327 -325 0 -325 0 0 -330z
m558 3 l2 -232 -231 -3 c-127 -2 -233 -1 -235 1 -6 7 -5 457 2 463 3 4 107 5
232 5 l227 -2 3 -232z"/>
<path d="M6984 6697 c-2 -7 -3 -69 -2 -138 l3 -124 134 -3 c88 -2 137 1 141 8
9 15 13 231 5 253 -6 15 -23 17 -141 17 -102 0 -136 -3 -140 -13z"/>
<path d="M5952 6478 c3 -43 3 -43 44 -46 38 -3 42 -1 47 23 9 51 -1 65 -50 65
l-44 0 3 -42z"/>
<path d="M4174 6327 c-3 -9 -4 -30 -2 -49 3 -31 5 -33 43 -33 l40 0 0 45 c0
45 0 45 -38 48 -26 2 -39 -1 -43 -11z"/>
<path d="M1734 6136 c-3 -8 -4 -29 -2 -48 l3 -33 230 0 230 0 0 45 0 45 -228
3 c-189 2 -228 0 -233 -12z"/>
<path d="M6894 6136 c-3 -8 -4 -29 -2 -48 3 -31 5 -33 43 -33 l40 0 3 48 3 47
-41 0 c-26 0 -43 -5 -46 -14z"/>
<path d="M5860 5636 c0 -40 2 -44 28 -47 15 -2 56 -2 91 1 69 5 78 15 64 68
-5 21 -10 22 -94 22 l-89 0 0 -44z"/>
<path d="M2294 5576 c-3 -8 -4 -29 -2 -48 3 -31 6 -33 42 -36 24 -2 42 2 47
10 13 19 11 62 -3 76 -17 17 -77 15 -84 -2z"/>
<path d="M6515 5098 c-3 -13 -5 -55 -3 -93 l3 -70 45 0 45 0 0 90 0 90 -42 3
c-37 3 -43 0 -48 -20z"/>
<path d="M6521 4826 c-7 -8 -11 -30 -9 -48 3 -32 4 -33 48 -33 l45 0 0 45 c0
44 0 45 -36 48 -22 2 -40 -2 -48 -12z"/>
<path d="M1827 4454 c-4 -4 -7 -24 -7 -45 0 -37 -1 -38 -42 -41 l-43 -3 -3
-92 -3 -93 46 0 45 0 0 94 0 95 48 3 47 3 0 40 c0 40 0 40 -40 43 -23 2 -44 0
-48 -4z"/>
<path d="M1730 3945 l0 -45 45 0 45 0 0 45 0 45 -45 0 -45 0 0 -45z"/>
<path d="M2389 2673 c-1 -5 -2 -24 -3 -43 -1 -34 -3 -35 -46 -40 l-45 -5 0
-45 0 -45 90 0 90 0 3 93 3 92 -46 0 c-25 0 -46 -3 -46 -7z"/>
<path d="M2290 1976 l0 -46 45 0 c39 0 45 3 51 24 12 48 2 61 -49 64 l-47 3 0
-45z"/>
<path d="M1736 1833 c-3 -4 -6 -152 -6 -330 l0 -323 324 0 324 0 6 23 c3 12 6
155 6 318 0 240 -3 299 -14 308 -15 12 -628 16 -640 4z m552 -325 l-3 -233
-230 0 -230 0 -3 220 c-1 121 0 225 2 232 4 10 58 13 236 13 l230 0 -2 -232z"/>
<path d="M1920 1510 l0 -140 140 0 141 0 -3 138 -3 137 -137 3 -138 3 0 -141z"/>
<path d="M2950 1321 l0 -50 -47 -3 -48 -3 0 -40 0 -40 45 0 45 0 3 42 3 42 92
3 92 3 0 45 0 45 -92 3 -93 3 0 -50z"/>
<path d="M3420 1275 l0 -95 45 0 45 0 0 45 0 45 45 0 c29 0 45 5 46 13 9 90
12 87 -92 87 l-89 0 0 -95z"/>
<path d="M3230 1225 l0 -45 45 0 45 0 0 45 0 45 -45 0 -45 0 0 -45z"/>
<path d="M3817 662 c-10 -10 -17 -31 -17 -45 0 -28 5 -31 93 -66 31 -12 38
-55 11 -65 -29 -11 -67 -6 -86 11 -25 22 -36 8 -13 -17 28 -31 97 -28 123 5
20 26 19 59 -1 73 -7 4 -32 14 -57 23 -33 12 -46 22 -48 39 -6 40 54 56 90 23
10 -9 21 -13 26 -9 13 13 -39 46 -73 46 -18 0 -39 -8 -48 -18z"/>
<path d="M4636 661 c-16 -18 -17 -24 -6 -51 11 -26 10 -33 -4 -49 -23 -25 -21
-78 3 -91 26 -13 78 -13 87 1 4 8 9 8 17 0 17 -17 42 -14 28 3 -6 7 -8 27 -5
45 4 20 3 31 -5 31 -6 0 -11 -7 -11 -15 0 -23 -17 -18 -38 13 l-20 27 24 29
c22 25 24 30 11 50 -19 29 -58 32 -81 7z m59 -31 c0 -18 -6 -26 -22 -28 -18
-3 -23 1 -23 21 0 28 9 39 30 35 9 -2 15 -14 15 -28z m-6 -99 c30 -42 27 -53
-16 -49 -31 2 -39 7 -41 26 -3 23 13 52 29 52 4 0 17 -13 28 -29z"/>
<path d="M4900 570 c0 -67 4 -110 10 -110 6 0 10 18 10 40 0 40 0 40 38 40 49
0 78 22 84 62 8 49 -27 78 -92 78 l-50 0 0 -110z m101 80 c12 -7 19 -21 19
-40 0 -34 -23 -50 -69 -50 -30 0 -31 1 -31 50 0 49 1 50 31 50 17 0 39 -5 50
-10z"/>
<path d="M4007 602 c-24 -26 -23 -104 1 -125 25 -23 75 -21 97 3 22 24 17 25
-21 5 -43 -22 -69 -1 -69 56 0 37 4 46 27 58 24 14 28 14 47 -3 25 -23 39 -15
16 8 -22 22 -78 21 -98 -2z"/>
<path d="M4179 603 c-12 -15 -12 -16 6 -9 42 17 53 17 70 0 16 -17 16 -18 -1
-31 -10 -7 -26 -13 -37 -13 -31 0 -57 -20 -57 -44 0 -35 21 -46 79 -44 l51 2
0 59 c0 79 -11 97 -59 97 -24 0 -44 -6 -52 -17z m91 -78 c0 -16 -34 -55 -48
-55 -19 0 -45 28 -39 43 9 25 87 36 87 12z"/>
<path d="M4340 540 c0 -47 4 -80 10 -80 6 0 10 26 10 59 0 51 3 62 22 75 28
20 33 20 52 0 11 -10 16 -34 16 -75 0 -37 4 -59 11 -59 18 0 7 139 -11 150
-21 14 -64 12 -78 -2 -9 -9 -12 -9 -12 0 0 7 -4 12 -10 12 -6 0 -10 -33 -10
-80z"/>
<path d="M5110 610 c-22 -14 -5 -23 20 -10 27 15 60 4 60 -20 0 -13 -9 -22
-27 -26 -59 -12 -73 -22 -73 -53 0 -34 14 -41 78 -39 l42 2 0 66 c0 38 -5 71
-12 78 -14 14 -67 16 -88 2z m80 -93 c0 -26 -39 -51 -65 -41 -23 9 -18 43 8
54 40 16 57 12 57 -13z"/>
<path d="M5280 537 c32 -91 31 -111 -3 -122 -20 -7 -20 -8 -3 -12 10 -3 24 1
32 9 16 15 86 200 79 207 -9 9 -22 -13 -40 -66 -9 -29 -20 -53 -24 -53 -4 0
-16 26 -27 57 -12 31 -26 59 -32 61 -7 2 1 -33 18 -81z"/>
</g>
</svg>
